<svg width="388" height="57" viewBox="0 0 388 57" fill="none" xmlns="http://www.w3.org/2000/svg">
<path d="M0 57L9.54579 0.768786H34.3648C38.6324 0.768786 42.2261 1.59249 45.146 3.23989C48.0658 4.88728 50.1622 7.20279 51.4349 10.1864C52.7077 13.17 53.0072 16.657 52.3334 20.6474C51.6595 24.711 50.1622 28.2163 47.8412 31.1633C45.539 34.092 42.6004 36.3526 39.0254 37.9451C35.4691 39.5193 31.4824 40.3064 27.0651 40.3064H12.2411L14.2625 28.4451H25.9421C27.8138 28.4451 29.4609 28.1339 30.8834 27.5116C32.3059 26.8709 33.457 25.974 34.3368 24.8208C35.2165 23.6493 35.7873 22.2582 36.0494 20.6474C36.3114 19.0366 36.1898 17.6638 35.6844 16.5289C35.1977 15.3757 34.3555 14.4971 33.1576 13.8931C31.9784 13.2707 30.4716 12.9595 28.6374 12.9595H23.1345L15.6102 57H0Z" fill="#2D2D2D"/>
<path d="M114.809 57L124.355 0.768786H139.965L136.147 23.5029H136.933L158.046 0.768786H176.239L152.655 25.8092L167.142 57H148.5L139.291 35.9133L132.89 42.6127L130.419 57H114.809Z" fill="#2D2D2D"/>
<path d="M171.326 57L180.872 0.768786H222.312L220.178 13.0694H194.348L192.776 22.7341H216.472L214.338 35.0347H190.642L189.07 44.6994H214.787L212.653 57H171.326Z" fill="#2D2D2D"/>
<path d="M235.444 57H218.598L247.124 0.768786H268.461L277.895 57H261.049L255.434 16.2543H254.985L235.444 57ZM236.118 34.815H267.787L265.766 46.237H234.096L236.118 34.815Z" fill="#2D2D2D"/>
<path d="M283.433 57L292.978 0.768786H317.797C322.065 0.768786 325.659 1.59249 328.579 3.23989C331.498 4.88728 333.595 7.20279 334.868 10.1864C336.14 13.17 336.44 16.657 335.766 20.6474C335.092 24.711 333.595 28.2163 331.274 31.1633C328.972 34.092 326.033 36.3526 322.458 37.9451C318.902 39.5193 314.915 40.3064 310.498 40.3064H295.674L297.695 28.4451H309.375C311.246 28.4451 312.894 28.1339 314.316 27.5116C315.739 26.8709 316.89 25.974 317.769 24.8208C318.649 23.6493 319.22 22.2582 319.482 20.6474C319.744 19.0366 319.622 17.6638 319.117 16.5289C318.63 15.3757 317.788 14.4971 316.59 13.8931C315.411 13.2707 313.904 12.9595 312.07 12.9595H306.567L299.043 57H283.433Z" fill="#2D2D2D"/>
<path d="M335.317 57L344.863 0.768786H369.682C373.949 0.768786 377.543 1.59249 380.463 3.23989C383.383 4.88728 385.479 7.20279 386.752 10.1864C388.024 13.17 388.324 16.657 387.65 20.6474C386.976 24.711 385.479 28.2163 383.158 31.1633C380.856 34.092 377.917 36.3526 374.342 37.9451C370.786 39.5193 366.799 40.3064 362.382 40.3064H347.558L349.579 28.4451H361.259C363.131 28.4451 364.778 28.1339 366.2 27.5116C367.623 26.8709 368.774 25.974 369.654 24.8208C370.533 23.6493 371.104 22.2582 371.366 20.6474C371.628 19.0366 371.507 17.6638 371.001 16.5289C370.514 15.3757 369.672 14.4971 368.474 13.8931C367.295 13.2707 365.788 12.9595 363.954 12.9595H358.451L350.927 57H335.317Z" fill="#2D2D2D"/>
<path d="M92.187 28.9942C92.187 30.7965 91.4549 32.525 90.1518 33.7994C88.8486 35.0738 87.0812 35.7897 85.2383 35.7897C83.3953 35.7897 81.6279 35.0738 80.3247 33.7994C79.0216 32.525 78.2895 30.7965 78.2895 28.9942C78.2895 27.1919 79.0216 25.4635 80.3247 24.1891C81.6279 22.9147 83.3953 22.1987 85.2383 22.1987C87.0812 22.1987 88.8486 22.9147 90.1518 24.1891C91.4549 25.4635 92.187 27.1919 92.187 28.9942ZM113.033 28.9942C113.033 43.9987 100.581 56.1763 85.2383 56.1763C69.8954 56.1763 57.4432 43.9987 57.4432 28.9942C57.4432 13.9897 69.8954 1.81214 85.2383 1.81214C100.581 1.81214 113.033 13.9897 113.033 28.9942ZM107.474 28.9942H96.3563C96.3563 22.987 91.381 18.1214 85.2383 18.1214C79.0955 18.1214 74.1202 22.987 74.1202 28.9942H63.0022C63.0022 40.9815 72.9806 50.7399 85.2383 50.7399C97.4959 50.7399 107.474 40.9815 107.474 28.9942Z" fill="#2D2D2D"/>
</svg>
